<svg xmlns="http://www.w3.org/2000/svg" xmlns:xlink="http://www.w3.org/1999/xlink" style="font-family:&quot;Lucida Grande&quot;,&quot;Lucida Sans Unicode&quot;,Arial,Helvetica,sans-serif;font-size:12px" width="600" height="400" class="highcharts-root" version="1.1" viewBox="0 0 600 400"><desc>Created with Highcharts 6.2.0</desc><defs><clipPath id="highcharts-gp82u3a-173"><rect width="580" height="375" x="0" y="0" fill="none"/></clipPath></defs><rect width="600" height="400" x="0" y="0" fill="#fff" class="highcharts-background" rx="0" ry="0"/><rect width="580" height="375" x="10" y="10" fill="none" class="highcharts-plot-background"/><rect width="580" height="375" x="10" y="10" fill="none" class="highcharts-plot-border" data-z-index="1"/><g class="highcharts-series-group" data-z-index="3"><g class="highcharts-series highcharts-series-0 highcharts-pie-series" data-z-index=".1"><path fill="#e1f3ef" stroke="#fff" stroke-linejoin="round" stroke-width="1" d="M 289.97026371226053 42.00000302824253 A 146 146 0 1 1 267.8372206592401 43.69195721688695 L 290 188 A 0 0 0 1 0 290 188 Z" class="highcharts-point highcharts-color-0" transform="translate(10,10) scale(1 1) translate(0,0)"/><path fill="#725573" stroke="#fff" stroke-linejoin="round" stroke-width="1" d="M 267.98153975936066 43.66986659525537 A 146 146 0 0 1 280.0229902761958 42.34129179149255 L 290 188 A 0 0 0 0 0 290 188 Z" class="highcharts-point highcharts-color-1" transform="translate(10,10) scale(1 1) translate(0,0)"/><path fill="#bad5d9" stroke="#fff" stroke-linejoin="round" stroke-width="1" d="M 280.16865394863237 42.33138761277962 A 146 146 0 0 1 289.7972089290416 42.00014083643251 L 290 188 A 0 0 0 0 0 290 188 Z" class="highcharts-point highcharts-color-2" transform="translate(10,10) scale(1 1) translate(0,0)"/></g></g><g class="highcharts-data-labels highcharts-series-0 highcharts-pie-series" data-z-index="6" visibility="visible"><path fill="none" stroke="#e1f3ef" stroke-width="1" d="M 308.267200557376 363.4992347258824 C 303.267200557376 363.4992347258824 301.91032777309874 345.5504493561899 301.4580368450064 339.5675208996257 L 301.00574591691407 333.5845924430615" class="highcharts-data-label-connector highcharts-color-0" transform="translate(10,10) scale(1 1)"/><path fill="none" stroke="#725573" stroke-width="1" d="M 198.01149501227187 35 C 203.01149501227187 35 272.81601016149165 30.937240272462915 273.46856673763756 36.90164886971116 L 274.12112331378347 42.866057466959404" class="highcharts-data-label-connector highcharts-color-1" transform="translate(10,10) scale(1 1)"/><path fill="none" stroke="#bad5d9" stroke-width="1" d="M 279.1013042228135 12 C 284.1013042228135 12 284.70457992729905 30.088763774538094 284.905671828794 36.08539299828981 L 285.106763730289 42.08202222204153" class="highcharts-data-label-connector highcharts-color-2" transform="translate(10,10) scale(1 1)"/><g class="highcharts-label highcharts-data-label highcharts-data-label-color-0" data-z-index="1"><text x="5" y="16" data-z-index="1" transform="translate(10,10) scale(1 1) translate(313,353)" style="font-size:11px;font-weight:700;color:#000;cursor:pointer;fill:#000"><tspan x="5" y="16" fill="#FFF" stroke="#FFF" stroke-linejoin="round" stroke-width="2" class="highcharts-text-outline">USD</tspan> <tspan x="5" y="16">USD</tspan></text></g><g class="highcharts-label highcharts-data-label highcharts-data-label-color-1" data-z-index="1"><text x="5" y="16" data-z-index="1" transform="translate(10,10) scale(1 1) translate(161,25)" style="font-size:11px;font-weight:700;color:#000;cursor:pointer;fill:#000"><tspan x="5" y="16" fill="#FFF" stroke="#FFF" stroke-linejoin="round" stroke-width="2" class="highcharts-text-outline">EUR</tspan> <tspan x="5" y="16">EUR</tspan></text></g><g class="highcharts-label highcharts-data-label highcharts-data-label-color-2" data-z-index="1"><text x="5" y="16" data-z-index="1" transform="translate(10,10) scale(1 1) translate(241,2)" style="font-size:11px;font-weight:700;color:#000;cursor:pointer;fill:#000"><tspan x="5" y="16" fill="#FFF" stroke="#FFF" stroke-linejoin="round" stroke-width="2" class="highcharts-text-outline">CHF</tspan> <tspan x="5" y="16">CHF</tspan></text></g></g><g class="highcharts-legend" data-z-index="7"><rect width="8" height="8" x="0" y="0" fill="none" class="highcharts-legend-box" rx="0" ry="0" visibility="hidden"/></g></svg>